<?xml version="1.0" encoding="utf-8"?>
<!-- Uploaded to: SVG Repo, www.svgrepo.com, Generator: SVG Repo Mixer Tools -->
<svg width="800px" height="800px" viewBox="0 0 1024 1024" class="icon"  version="1.1" xmlns="http://www.w3.org/2000/svg"><path d="M629.379072 512.20992h-58.22464l-0.401408 252.105728H466.74944V512.311296h-62.440448v-83.866624h62.440448v-51.3536c0-69.9904 20.98176-116.784128 102.897664-116.784128h63.747072v83.968h-38.148096c-31.721472 0-33.93024 15.39584-33.93024 37.67808l-0.1024 46.288896h77.100032l-8.935424 83.968zM788.31616 98.304H236.306432C160.090112 98.304 98.304 160.090112 98.304 236.306432V788.31616c0 76.21632 61.786112 138.002432 138.002432 138.002432H788.31616c76.21632 0 138.002432-61.785088 138.002432-138.002432V236.306432C926.318592 160.090112 864.53248 98.304 788.31616 98.304z" fill="#FFF200" /><path d="M487.22944 743.835648h63.075328l0.36864-231.658496c0.018432-11.297792 9.182208-20.447232 20.48-20.447232h39.809024l4.576256-43.008h-54.3232a20.481024 20.481024 0 0 1-20.48-20.524032l0.101376-46.288896c0-13.142016 0.6656-26.994688 8.621056-38.678528 13.234176-19.436544 37.737472-19.436544 45.789184-19.436544h17.668096v-43.006976h-43.267072c-47.642624 0-61.339648 18.086912-65.841152 24.030208-11.154432 14.729216-16.576512 38.370304-16.576512 72.274944v51.352576c0 11.311104-9.168896 20.48-20.48 20.48h-41.961472v42.906624h41.961472c11.311104 0 20.48 9.168896 20.48 20.48v231.524352z m83.52256 40.96H466.74944c-11.311104 0-20.48-9.168896-20.48-20.48V532.791296h-41.961472c-11.31008 0-20.48-9.168896-20.48-20.48v-83.866624c0-11.311104 9.16992-20.48 20.48-20.48h41.961472v-30.872576c0-43.762688 7.907328-74.586112 24.8832-97.00352 20.516864-27.091968 52.734976-40.261632 98.494464-40.261632h63.747072c11.311104 0 20.48 9.168896 20.48 20.48v83.966976c0 11.311104-9.168896 20.48-20.48 20.48h-38.148096c-8.367104 0-11.372544 1.340416-12.028928 1.700864-0.671744 1.296384-1.421312 5.07904-1.421312 15.49824l-0.057344 25.808896h56.573952a20.48 20.48 0 0 1 20.365312 22.646784l-8.9344 83.968c-1.107968 10.413056-9.893888 18.313216-20.365312 18.313216h-37.777408l-0.369664 231.658496c-0.017408 11.297792-9.181184 20.447232-20.48 20.447232zM788.31616 98.304H236.306432C160.090112 98.304 98.304 160.090112 98.304 236.306432V788.31616c0 76.21632 61.786112 138.002432 138.002432 138.002432H788.31616c76.21632 0 138.002432-61.786112 138.002432-138.002432V236.306432C926.318592 160.090112 864.53248 98.304 788.31616 98.304z m0 40.96c53.510144 0 97.042432 43.533312 97.042432 97.042432V788.31616c0 53.50912-43.532288 97.042432-97.042432 97.042432H236.306432c-53.50912 0-97.042432-43.533312-97.042432-97.042432V236.306432C139.264 182.797312 182.797312 139.264 236.306432 139.264H788.31616z" fill="#000000" /></svg>