<?xml version="1.0" ?>
<!DOCTYPE svg  PUBLIC '-//W3C//DTD SVG 1.1//EN'  'http://www.w3.org/Graphics/SVG/1.1/DTD/svg11.dtd'>
<!-- Uploaded to: SVG Repo, www.svgrepo.com, Generator: SVG Repo Mixer Tools -->
<svg fill="#000000" width="800px" height="800px" viewBox="0 0 2.33333 2.33333" style="shape-rendering:geometricPrecision; text-rendering:geometricPrecision; image-rendering:optimizeQuality; fill-rule:evenodd; clip-rule:evenodd" xml:space="preserve" xmlns="http://www.w3.org/2000/svg" xmlns:xlink="http://www.w3.org/1999/xlink">
<defs>
<style type="text/css">
   <![CDATA[
    .fil0 {fill:black}
   ]]>
  </style>
</defs>
<g id="Layer_x0020_1">
<path class="fil0" d="M1.652 1.79018c-0.00416535,0 -0.00833071,-0.00138976 -0.0111102,-0.00416929l-0.279118 -0.199965c-0.36987,0.136689 -0.742933,-0.135827 -0.742933,-0.512417 0,-0.301343 0.245791,-0.547134 0.54713,-0.547134 0.302728,0 0.547134,0.245791 0.547134,0.547134 0,0.11387 -0.0347205,0.223575 -0.0999843,0.315224l0.0583228 0.377717c0.0019685,0.0122677 -0.0101339,0.0236102 -0.0194409,0.0236102zm-0.273567 -0.24163l0.247185 0.177748 -0.0513819 -0.34022c0,-0.00833071 0.00416535,-0.0138858 0.00694094,-0.0166654 0.0611024,-0.0860984 0.0944291,-0.187469 0.0944291,-0.295783 0,-0.279122 -0.227736,-0.506862 -0.508248,-0.506862 -0.279122,0 -0.506866,0.227736 -0.506866,0.506862 0,0.280508 0.22774,0.508252 0.506866,0.508252 0.0624882,0 0.124976,-0.0111102 0.184689,-0.0347165 0.0125,-0.00694488 0.0222205,-0.00138976 0.0263858,0.00138583zm-0.0263858 0.0305512c0,0 0,0 0,0z"/>
<path class="fil0" d="M1.8978 1.09307c-0.0111102,0 -0.0194409,-0.00833071 -0.0194409,-0.0194409 0,-0.391602 -0.31939,-0.710996 -0.712382,-0.710996 -0.391602,0 -0.710996,0.319394 -0.710996,0.710996 0,0.0257717 -0.038878,0.0257717 -0.038878,0 0,-0.413823 0.337445,-0.751268 0.751264,-0.751268 0.413823,0 0.751268,0.337445 0.751268,0.751268 -0.00138976,0.0111102 -0.00972441,0.0194409 -0.0208346,0.0194409z"/>
<path class="fil0" d="M1.8978 1.57077l-0.10137 0c-0.0111102,0 -0.0194409,-0.00833071 -0.0194409,-0.0194409l0 -0.477701c0,-0.0111102 0.00833071,-0.0194409 0.0194409,-0.0194409l0.10137 0c0.0666575,0 0.122205,0.0541575 0.122205,0.122205l0 0.273563c0,0.0652677 -0.0555472,0.120815 -0.122205,0.120815zm-0.0819291 -0.0402717l0.0819291 0c0.0458268,0 0.0819331,-0.0361063 0.0819331,-0.0819331l0 -0.272173c0,-0.0458268 -0.0361063,-0.0819331 -0.0819331,-0.0819331l-0.0819291 0 0 0.436039z"/>
<path class="fil0" d="M0.536909 1.57077l-0.10137 0c-0.0666575,0 -0.122205,-0.0541575 -0.122205,-0.122205l0 -0.272173c0,-0.0666575 0.0541575,-0.122205 0.122205,-0.122205l0.10137 0c0.0111102,0 0.0194409,0.00833071 0.0194409,0.0194409l0 0.476311c0.00138583,0.0111102 -0.00833071,0.0208307 -0.0194409,0.0208307zm-0.10137 -0.477701c-0.0458268,0 -0.0819331,0.0361024 -0.0819331,0.0819291l0 0.273567c0,0.0458268 0.0361063,0.0819331 0.0819331,0.0819331l0.0819252 0 0 -0.437429 -0.0819252 0z"/>
<path class="fil0" d="M1.02155 1.91377c-0.00138583,0 -0.00277559,0 -0.00416535,0 -0.206909,-0.0416614 -0.388827,-0.169417 -0.497142,-0.35272 -0.0137165,-0.0236063 0.0216339,-0.0433228 0.0347165,-0.0208346 0.10276,0.173583 0.274957,0.295787 0.470756,0.334669 0.0244843,0.00548425 0.0182126,0.0388858 -0.00416535,0.0388858z"/>
<path class="fil0" d="M1.22985 2.01097l-0.127756 0c-0.0555472,0 -0.101374,-0.0458268 -0.101374,-0.10137 0,-0.056937 0.0458268,-0.102764 0.101374,-0.102764l0.127756 0c0.0555472,0 0.101374,0.0458268 0.101374,0.102764 0.00138583,0.0555472 -0.0444409,0.10137 -0.101374,0.10137zm-0.127756 -0.163862c-0.0347165,0 -0.0624921,0.0277756 -0.0624921,0.0624921 0,0.0347165 0.0277756,0.0624921 0.0624921,0.0624921l0.127756 -3.93701e-006c0.0347165,0 0.0624921,-0.0277717 0.0624921,-0.0624882 0,-0.0347205 -0.0277756,-0.0624921 -0.0624921,-0.0624921l-0.127756 0z"/>
<path class="fil0" d="M0.897961 1.17222c-0.0624882,0 -0.11248,-0.0499882 -0.11248,-0.11248 0,-0.0624921 0.0499921,-0.11248 0.11248,-0.11248 0.0611024,0 0.112484,0.0499882 0.112484,0.11248 0,0.0624882 -0.0499961,0.11248 -0.112484,0.11248zm0 -0.184689c-0.0402717,0 -0.0735984,0.0333268 -0.0735984,0.0735945 0,0.0402756 0.0333307,0.0722126 0.0735984,0.0722126 0.0402717,0 0.0722126,-0.031937 0.0722126,-0.0722126 0,-0.0416575 -0.0319409,-0.0735945 -0.0722126,-0.0735945z"/>
<path class="fil0" d="M1.16597 1.17222c-0.0610984,0 -0.11248,-0.0499882 -0.11248,-0.11248 0,-0.0624921 0.0499882,-0.11248 0.11248,-0.11248 0.0624921,0 0.11248,0.0499882 0.11248,0.11248 0,0.0624882 -0.0499921,0.11248 -0.11248,0.11248zm0 -0.184689c-0.0402717,0 -0.0722087,0.031937 -0.0722087,0.0735945 0,0.0402756 0.031937,0.0722126 0.0722087,0.0722126 0.0402717,0 0.0735984,-0.031937 0.0735984,-0.0722126 0,-0.0402717 -0.0333268,-0.0735945 -0.0735984,-0.0735945z"/>
<path class="fil0" d="M1.43537 1.17222c-0.0624882,0 -0.11248,-0.0499882 -0.11248,-0.11248 0,-0.0624921 0.0499921,-0.11248 0.11248,-0.11248 0.0611024,0 0.112484,0.0499882 0.112484,0.11248 -0.00138976,0.0624882 -0.051378,0.11248 -0.112484,0.11248zm0 -0.184689c-0.0402717,0 -0.0735945,0.0333268 -0.0735945,0.0735945 0,0.0402756 0.0333268,0.0722126 0.0735945,0.0722126 0.0402717,0 0.0722126,-0.031937 0.0722126,-0.0722126 0,-0.0416575 -0.0319409,-0.0735945 -0.0722126,-0.0735945z"/>
</g>
</svg>